<svg width="32" height="32" viewBox="0 0 32 32" fill="none" xmlns="http://www.w3.org/2000/svg">
<path d="M25.5766 14.8929C25.5764 9.15754 20.9263 4.50817 15.1909 4.50817C9.45567 4.50842 4.8064 9.15769 4.80615 14.8929C4.80615 20.6284 9.45551 25.2784 15.1909 25.2786V27.2786L14.8716 27.2747C8.1792 27.1051 2.80615 21.6262 2.80615 14.8929C2.8064 8.05313 8.3511 2.50843 15.1909 2.50818C22.0309 2.50818 27.5764 8.05297 27.5766 14.8929L27.5727 15.2132C27.4031 21.9056 21.9241 27.2786 15.1909 27.2786V25.2786C20.9265 25.2786 25.5766 20.6285 25.5766 14.8929Z" fill="#A3A3A3"/>
<path d="M23.227 22.9289C23.6175 22.5384 24.2505 22.5384 24.641 22.9289L29.7406 28.0285C30.1312 28.419 30.1312 29.052 29.7406 29.4426C29.3501 29.8331 28.7171 29.8331 28.3266 29.4426L23.227 24.3429C22.8365 23.9524 22.8365 23.3194 23.227 22.9289Z" fill="#A3A3A3"/>
</svg>
