<svg width="32" height="32" viewBox="0 0 32 32" fill="none" xmlns="http://www.w3.org/2000/svg">
<path d="M28.4121 12.3028C28.412 9.41684 26.7807 6.99703 24.5547 5.97953C22.3922 4.99115 19.4867 5.25255 16.7256 8.12113L16 7.42289L15.2754 8.12113C12.514 5.25213 9.60795 4.99103 7.44531 5.97953C5.21933 6.99703 3.58804 9.41684 3.58789 12.3028C3.58789 15.2512 4.79484 17.524 6.52441 19.4717C8.2886 21.4583 10.5122 23.0248 12.5459 24.628C13.2517 25.1844 13.8814 25.6727 14.4883 26.0274C15.0954 26.3823 15.5846 26.544 16 26.544C16.4154 26.544 16.9046 26.3823 17.5117 26.0274C18.1186 25.6728 18.7482 25.1844 19.4541 24.628C21.4878 23.0247 23.7113 21.4583 25.4756 19.4717C27.2053 17.524 28.4121 15.2512 28.4121 12.3028ZM16.7256 8.12113C16.5359 8.31825 16.2736 8.42972 16 8.42972C15.7264 8.42969 15.4651 8.31822 15.2754 8.12113L16 7.42386L16.7256 8.12113ZM30.4248 12.3028C30.4248 15.8794 28.9344 18.6084 26.9805 20.8086C25.0611 22.9699 22.6144 24.699 20.7002 26.208C20.0129 26.7498 19.2751 27.3278 18.5273 27.7647C17.7798 28.2015 16.9264 28.5567 16 28.5567C15.0738 28.5566 14.2211 28.2014 13.4736 27.7647C12.7259 27.3278 11.9871 26.7499 11.2998 26.208C9.38554 24.699 6.9389 22.9699 5.01953 20.8086C3.06553 18.6084 1.5752 15.8794 1.5752 12.3028C1.57534 8.6638 3.63494 5.50765 6.6084 4.14847C9.42403 2.86151 12.8974 3.25114 16 6.02738C19.1025 3.25108 22.576 2.86158 25.3916 4.14847C28.3651 5.50765 30.4247 8.6638 30.4248 12.3028Z" fill="black"/>
</svg>
