<svg width="32" height="32" viewBox="0 0 32 32" fill="none" xmlns="http://www.w3.org/2000/svg">
<g clip-path="url(#clip0_1819_2311)">
<path d="M14.7501 1.10725C14.7501 0.416899 15.3096 -0.142611 16 -0.142612C16.6903 -0.142612 17.2498 0.416899 17.2498 1.10725V30.8927C17.2498 31.5831 16.6903 32.1426 16 32.1426C15.3096 32.1426 14.7501 31.5831 14.7501 30.8927V1.10725Z" fill="black"/>
<path d="M1.10725 14.7501C0.416899 14.7501 -0.142611 15.3096 -0.142612 16C-0.142612 16.6903 0.416899 17.2498 1.10725 17.2498H30.8927C31.5831 17.2498 32.1426 16.6903 32.1426 16C32.1426 15.3096 31.5831 14.7501 30.8927 14.7501H1.10725Z" fill="black"/>
</g>
<defs>
<clipPath id="clip0_1819_2311">
<rect width="32" height="32" fill="white"/>
</clipPath>
</defs>
</svg>
