<svg width="32" height="32" viewBox="0 0 32 32" fill="none" xmlns="http://www.w3.org/2000/svg">
<path d="M26.2236 15.1892C26.2236 14.9242 26.118 14.6697 25.9307 14.4822L16.7812 5.33278C16.3907 4.94256 15.7576 4.94236 15.3672 5.33278L6.21875 14.4822C6.03133 14.6697 5.92578 14.9241 5.92578 15.1892V26.7879L5.93066 26.8904C5.98183 27.3947 6.40798 27.7879 6.92578 27.7879H25.2236C25.7758 27.7877 26.2236 27.34 26.2236 26.7879V15.1892ZM28.2236 26.7879C28.2236 28.4446 26.8803 29.7877 25.2236 29.7879H6.92578C5.32055 29.7879 4.00981 28.5275 3.92969 26.9422L3.92578 26.7879V15.1892C3.92578 14.3936 4.24208 13.6298 4.80469 13.0672L13.9531 3.91872C15.1247 2.74714 17.0247 2.74715 18.1963 3.91872L27.3447 13.0672C27.9073 13.6298 28.2236 14.3936 28.2236 15.1892V26.7879Z" fill="black"/>
</svg>
