<svg width="32" height="32" viewBox="0 0 32 32" fill="none" xmlns="http://www.w3.org/2000/svg">
<path d="M28.3507 12.9371C28.1652 12.3849 27.6873 11.9824 27.1119 11.8944L20.4149 10.871L17.4068 4.46299C17.1503 3.91678 16.6021 3.56909 15.9999 3.56909C15.3973 3.56909 14.8495 3.91678 14.5929 4.46299L11.5845 10.8714L4.88753 11.8948C4.31212 11.9828 3.83419 12.3849 3.6491 12.9375C3.464 13.49 3.60371 14.0985 4.0106 14.5161L8.9012 19.531L7.74288 26.6257C7.64737 27.213 7.8964 27.8034 8.38222 28.1468C8.86765 28.4901 9.50857 28.5248 10.0307 28.2367L16.0003 24.9354L21.9699 28.2367C22.2055 28.367 22.4648 28.4309 22.7229 28.4309C23.037 28.4309 23.3512 28.3354 23.6184 28.1468C24.1042 27.8038 24.3528 27.2134 24.2573 26.6257L23.099 19.531L27.99 14.5161C28.3961 14.0985 28.5358 13.49 28.3507 12.9371Z" fill="white"/>
</svg>
