<svg width="32" height="32" viewBox="0 0 32 32" fill="none" xmlns="http://www.w3.org/2000/svg">
<path d="M25.6469 4.58548C26.135 4.09732 26.9263 4.09732 27.4145 4.58548C27.9026 5.07363 27.9026 5.8649 27.4145 6.35305L6.35293 27.4146C5.86478 27.9027 5.07351 27.9027 4.58535 27.4146C4.0972 26.9264 4.0972 26.1352 4.58535 25.647L25.6469 4.58548Z" fill="black"/>
<path d="M6.35312 4.58548C5.86497 4.09732 5.0737 4.09732 4.58554 4.58548C4.09739 5.07363 4.09739 5.8649 4.58554 6.35305L25.6471 27.4146C26.1352 27.9027 26.9265 27.9027 27.4146 27.4146C27.9028 26.9264 27.9028 26.1352 27.4146 25.647L6.35312 4.58548Z" fill="black"/>
</svg>
