<svg width="32" height="32" viewBox="0 0 32 32" fill="none" xmlns="http://www.w3.org/2000/svg">
<path fill-rule="evenodd" clip-rule="evenodd" d="M3.40747 9.00416C3.40747 8.23142 4.03391 7.60498 4.80665 7.60498H27.1935C27.9663 7.60498 28.5927 8.23142 28.5927 9.00416C28.5927 9.7769 27.9663 10.4033 27.1935 10.4033H4.80665C4.03391 10.4033 3.40747 9.7769 3.40747 9.00416ZM7.60501 16.0001C7.60501 15.2273 8.23145 14.6009 9.00419 14.6009H22.996C23.7688 14.6009 24.3952 15.2273 24.3952 16.0001C24.3952 16.7728 23.7688 17.3992 22.996 17.3992H9.00419C8.23145 17.3992 7.60501 16.7728 7.60501 16.0001ZM11.8026 22.996C11.8026 22.2232 12.429 21.5968 13.2017 21.5968H18.7985C19.5712 21.5968 20.1976 22.2232 20.1976 22.996C20.1976 23.7687 19.5712 24.3951 18.7985 24.3951H13.2017C12.429 24.3951 11.8026 23.7687 11.8026 22.996Z" fill="black"/>
</svg>
